<svg xmlns="http://www.w3.org/2000/svg" viewBox="0 0 24 24" fill="none" stroke="currentColor" stroke-width="2" stroke-linecap="round" stroke-linejoin="round">
  <rect width="24" height="24" rx="4" fill="#121212" stroke="none" />
  <path d="M9.937 15.5A2 2 0 0 0 8.5 14.063l-6.135-1.582a4.936 4.936 0 0 1-3.267-3.267L.68 3.079A4.936 4.936 0 0 1 3.947-.188l6.135 1.582a2 2 0 0 0 1.437 1.437l6.135 1.582a4.936 4.936 0 0 1 3.267 3.267L22.5 13.816a4.936 4.936 0 0 1-3.267 3.267l-6.135-1.582z" fill="#ef4444" stroke="none" transform="translate(4,4) scale(0.65)" />
  <path d="m21.21 15.89-1.39-1.39a1 1 0 0 0-1.42 0l-1.39 1.39a1 1 0 0 1-1.42 0l-1.39-1.39a1 1 0 0 0-1.42 0l-1.39 1.39a1 1 0 0 1-1.42 0l-1.39-1.39a1 1 0 0 0-1.42 0l-1.39 1.39" stroke="#ef4444" stroke-width="1.5" transform="translate(-1, 2) scale(1)"/>
</svg>
